# xmcd
#
# Track frame offsets:
#	182
#	15990
#	34652
#	53275
#	73150
#	89707
#	109412
#	134700
#	150777
#	173080
#
# Disc length: 2639 seconds
#
# Revision: 1
# Processed by: cddbd v1.4PL0 Copyright (c) Steve Scherf et al.
# Submitted via: audiograbber 1.80.04
#
DISCID=7a0a4d0a
DTITLE=Bobby Bell - 'Bout Time
DYEAR=1998
DGENRE=Blues
TTITLE0=New Shoes
TTITLE1=Stroke
TTITLE2=Love and Happiness
TTITLE3=She Gives Me Love
TTITLE4=Just A Dance
TTITLE5=Winners
TTITLE6=Every Second With You
TTITLE7=Inner City Blues
TTITLE8=Long Time Ago
TTITLE9=Jungle
EXTD=
EXTT0=
EXTT1=
EXTT2=
EXTT3=
EXTT4=
EXTT5=
EXTT6=
EXTT7=
EXTT8=
EXTT9=
PLAYORDER=
